<?xml version="1.0" ?><svg contentScriptType="text/ecmascript" contentStyleType="text/css" enable-background="new 0 0 2048 2048" height="2048px" id="Layer_1" preserveAspectRatio="xMidYMid meet" version="1.1" viewBox="0.0 0 1664.0 2048" width="1664.0px" xml:space="preserve" xmlns="http://www.w3.org/2000/svg" xmlns:xlink="http://www.w3.org/1999/xlink" zoomAndPan="magnify"><path d="M512,1504v-192c0-9.333-3-17-9-23s-13.667-9-23-9H160c-9.333,0-17,3-23,9s-9,13.667-9,23v192c0,9.333,3,17,9,23  s13.667,9,23,9h320c9.333,0,17-3,23-9S512,1513.333,512,1504z M512,1120V928c0-9.333-3-17-9-23s-13.667-9-23-9H160  c-9.333,0-17,3-23,9s-9,13.667-9,23v192c0,9.333,3,17,9,23s13.667,9,23,9h320c9.333,0,17-3,23-9S512,1129.333,512,1120z M1024,1504  v-192c0-9.333-3-17-9-23s-13.667-9-23-9H672c-9.333,0-17,3-23,9s-9,13.667-9,23v192c0,9.333,3,17,9,23s13.667,9,23,9h320  c9.333,0,17-3,23-9S1024,1513.333,1024,1504z M512,736V544c0-9.333-3-17-9-23s-13.667-9-23-9H160c-9.333,0-17,3-23,9s-9,13.667-9,23  v192c0,9.333,3,17,9,23s13.667,9,23,9h320c9.333,0,17-3,23-9S512,745.333,512,736z M1024,1120V928c0-9.333-3-17-9-23s-13.667-9-23-9  H672c-9.333,0-17,3-23,9s-9,13.667-9,23v192c0,9.333,3,17,9,23s13.667,9,23,9h320c9.333,0,17-3,23-9S1024,1129.333,1024,1120z   M1536,1504v-192c0-9.333-3-17-9-23s-13.667-9-23-9h-320c-9.333,0-17,3-23,9s-9,13.667-9,23v192c0,9.333,3,17,9,23s13.667,9,23,9  h320c9.333,0,17-3,23-9S1536,1513.333,1536,1504z M1024,736V544c0-9.333-3-17-9-23s-13.667-9-23-9H672c-9.333,0-17,3-23,9  s-9,13.667-9,23v192c0,9.333,3,17,9,23s13.667,9,23,9h320c9.333,0,17-3,23-9S1024,745.333,1024,736z M1536,1120V928  c0-9.333-3-17-9-23s-13.667-9-23-9h-320c-9.333,0-17,3-23,9s-9,13.667-9,23v192c0,9.333,3,17,9,23s13.667,9,23,9h320  c9.333,0,17-3,23-9S1536,1129.333,1536,1120z M1536,736V544c0-9.333-3-17-9-23s-13.667-9-23-9h-320c-9.333,0-17,3-23,9  s-9,13.667-9,23v192c0,9.333,3,17,9,23s13.667,9,23,9h320c9.333,0,17-3,23-9S1536,745.333,1536,736z M1664,416v1088  c0,44-15.667,81.667-47,113s-69,47-113,47H160c-44,0-81.667-15.667-113-47s-47-69-47-113V416c0-44,15.667-81.667,47-113  s69-47,113-47h1344c44,0,81.667,15.667,113,47S1664,372,1664,416z"/></svg>