<?xml version="1.0" encoding="UTF-8" standalone="no"?>
<svg
   xmlns:dc="http://purl.org/dc/elements/1.1/"
   xmlns:cc="http://creativecommons.org/ns#"
   xmlns:rdf="http://www.w3.org/1999/02/22-rdf-syntax-ns#"
   xmlns:svg="http://www.w3.org/2000/svg"
   xmlns="http://www.w3.org/2000/svg"
   xmlns:sodipodi="http://sodipodi.sourceforge.net/DTD/sodipodi-0.dtd"
   xmlns:inkscape="http://www.inkscape.org/namespaces/inkscape"
   contentScriptType="text/ecmascript"
   contentStyleType="text/css"
   height="64"
   id="Layer_1"
   preserveAspectRatio="xMidYMid meet"
   version="1.1"
   width="64"
   xml:space="preserve"
   zoomAndPan="magnify"
   sodipodi:docname="grid.svg"
   inkscape:version="0.92.4 (unknown)"><metadata
     id="metadata9"><rdf:RDF><cc:Work
         rdf:about=""><dc:format>image/svg+xml</dc:format><dc:type
           rdf:resource="http://purl.org/dc/dcmitype/StillImage" /></cc:Work></rdf:RDF></metadata><defs
     id="defs7" /><sodipodi:namedview
     pagecolor="#ffffff"
     bordercolor="#666666"
     borderopacity="1"
     objecttolerance="10"
     gridtolerance="10"
     guidetolerance="10"
     inkscape:pageopacity="0"
     inkscape:pageshadow="2"
     inkscape:window-width="1920"
     inkscape:window-height="1010"
     id="namedview5"
     showgrid="false"
     inkscape:zoom="5.2149125"
     inkscape:cx="-23.63299"
     inkscape:cy="26.360565"
     inkscape:window-x="0"
     inkscape:window-y="0"
     inkscape:window-maximized="1"
     inkscape:current-layer="Layer_1" /><path
     d="M 20.461538,55.1818 V 47 c 0,-0.3977 -0.108173,-0.7244 -0.324519,-0.9801 -0.216346,-0.2557 -0.4928,-0.3835 -0.829327,-0.3835 H 7.7692308 c -0.3365265,0 -0.6129808,0.1278 -0.829327,0.3835 C 6.7235577,46.2756 6.6153846,46.6023 6.6153846,47 v 8.1818 c 0,0.3977 0.1081731,0.7245 0.3245192,0.9801 0.2163462,0.2557 0.4928005,0.3836 0.829327,0.3836 H 19.307692 c 0.336527,0 0.612981,-0.1279 0.829327,-0.3836 0.216346,-0.2556 0.324519,-0.5824 0.324519,-0.9801 z m 0,-16.3636 v -8.1818 c 0,-0.3977 -0.108173,-0.7245 -0.324519,-0.9801 -0.216346,-0.2557 -0.4928,-0.3836 -0.829327,-0.3836 H 7.7692308 c -0.3365265,0 -0.6129808,0.1279 -0.829327,0.3836 -0.2163461,0.2556 -0.3245192,0.5824 -0.3245192,0.9801 v 8.1818 c 0,0.3977 0.1081731,0.7244 0.3245192,0.9801 0.2163462,0.2557 0.4928005,0.3835 0.829327,0.3835 H 19.307692 c 0.336527,0 0.612981,-0.1278 0.829327,-0.3835 0.216346,-0.2557 0.324519,-0.5824 0.324519,-0.9801 z M 38.923077,55.1818 V 47 c 0,-0.3977 -0.108173,-0.7244 -0.324519,-0.9801 -0.216346,-0.2557 -0.492801,-0.3835 -0.829327,-0.3835 H 26.230769 c -0.336526,0 -0.612981,0.1278 -0.829327,0.3835 -0.216346,0.2557 -0.324519,0.5824 -0.324519,0.9801 v 8.1818 c 0,0.3977 0.108173,0.7245 0.324519,0.9801 0.216346,0.2557 0.492801,0.3836 0.829327,0.3836 h 11.538462 c 0.336526,0 0.612981,-0.1279 0.829327,-0.3836 0.216346,-0.2556 0.324519,-0.5824 0.324519,-0.9801 z M 20.461538,22.4545 v -8.1818 c 0,-0.3977 -0.108173,-0.7244 -0.324519,-0.9801 -0.216346,-0.2557 -0.4928,-0.3835 -0.829327,-0.3835 H 7.7692308 c -0.3365265,0 -0.6129808,0.1278 -0.829327,0.3835 -0.2163461,0.2557 -0.3245192,0.5824 -0.3245192,0.9801 v 8.1818 c 0,0.3978 0.1081731,0.7245 0.3245192,0.9802 0.2163462,0.2556 0.4928005,0.3835 0.829327,0.3835 H 19.307692 c 0.336527,0 0.612981,-0.1279 0.829327,-0.3835 0.216346,-0.2557 0.324519,-0.5824 0.324519,-0.9802 z m 18.461539,16.3637 v -8.1818 c 0,-0.3977 -0.108173,-0.7245 -0.324519,-0.9801 -0.216346,-0.2557 -0.492801,-0.3836 -0.829327,-0.3836 H 26.230769 c -0.336526,0 -0.612981,0.1279 -0.829327,0.3836 -0.216346,0.2556 -0.324519,0.5824 -0.324519,0.9801 v 8.1818 c 0,0.3977 0.108173,0.7244 0.324519,0.9801 0.216346,0.2557 0.492801,0.3835 0.829327,0.3835 h 11.538462 c 0.336526,0 0.612981,-0.1278 0.829327,-0.3835 0.216346,-0.2557 0.324519,-0.5824 0.324519,-0.9801 z M 57.384615,55.1818 V 47 c 0,-0.3977 -0.108173,-0.7244 -0.324519,-0.9801 -0.216346,-0.2557 -0.4928,-0.3835 -0.829327,-0.3835 H 44.692308 c -0.336527,0 -0.612981,0.1278 -0.829327,0.3835 -0.216346,0.2557 -0.324519,0.5824 -0.324519,0.9801 v 8.1818 c 0,0.3977 0.108173,0.7245 0.324519,0.9801 0.216346,0.2557 0.4928,0.3836 0.829327,0.3836 h 11.538461 c 0.336527,0 0.612981,-0.1279 0.829327,-0.3836 0.216346,-0.2556 0.324519,-0.5824 0.324519,-0.9801 z M 38.923077,22.4545 v -8.1818 c 0,-0.3977 -0.108173,-0.7244 -0.324519,-0.9801 -0.216346,-0.2557 -0.492801,-0.3835 -0.829327,-0.3835 H 26.230769 c -0.336526,0 -0.612981,0.1278 -0.829327,0.3835 -0.216346,0.2557 -0.324519,0.5824 -0.324519,0.9801 v 8.1818 c 0,0.3978 0.108173,0.7245 0.324519,0.9802 0.216346,0.2556 0.492801,0.3835 0.829327,0.3835 h 11.538462 c 0.336526,0 0.612981,-0.1279 0.829327,-0.3835 0.216346,-0.2557 0.324519,-0.5824 0.324519,-0.9802 z m 18.461538,16.3637 v -8.1818 c 0,-0.3977 -0.108173,-0.7245 -0.324519,-0.9801 -0.216346,-0.2557 -0.4928,-0.3836 -0.829327,-0.3836 H 44.692308 c -0.336527,0 -0.612981,0.1279 -0.829327,0.3836 -0.216346,0.2556 -0.324519,0.5824 -0.324519,0.9801 v 8.1818 c 0,0.3977 0.108173,0.7244 0.324519,0.9801 0.216346,0.2557 0.4928,0.3835 0.829327,0.3835 h 11.538461 c 0.336527,0 0.612981,-0.1278 0.829327,-0.3835 0.216346,-0.2557 0.324519,-0.5824 0.324519,-0.9801 z m 0,-16.3637 v -8.1818 c 0,-0.3977 -0.108173,-0.7244 -0.324519,-0.9801 -0.216346,-0.2557 -0.4928,-0.3835 -0.829327,-0.3835 H 44.692308 c -0.336527,0 -0.612981,0.1278 -0.829327,0.3835 -0.216346,0.2557 -0.324519,0.5824 -0.324519,0.9801 v 8.1818 c 0,0.3978 0.108173,0.7245 0.324519,0.9802 0.216346,0.2556 0.4928,0.3835 0.829327,0.3835 h 11.538461 c 0.336527,0 0.612981,-0.1279 0.829327,-0.3835 0.216346,-0.2557 0.324519,-0.5824 0.324519,-0.9802 z M 62,8.8182 v 46.3636 c 0,1.875 -0.564916,3.4801 -1.694712,4.8154 C 59.175493,61.3324 57.817308,62 56.230769,62 H 7.7692308 C 6.1826923,62 4.8245072,61.3324 3.6947115,59.9972 2.5649159,58.6619 2,57.0568 2,55.1818 V 8.8182 C 2,6.9432 2.5649159,5.3381 3.6947115,4.0028 4.8245072,2.6676 6.1826923,2 7.7692308,2 H 56.230769 c 1.586539,0 2.944724,0.6676 4.074519,2.0028 C 61.435084,5.3381 62,6.9432 62,8.8182 Z"
     id="path2"
     inkscape:connector-curvature="0"
     style="stroke-width:0.03919884" /></svg>