<?xml version="1.0" encoding="UTF-8" standalone="no"?>
<svg
   xmlns:dc="http://purl.org/dc/elements/1.1/"
   xmlns:cc="http://creativecommons.org/ns#"
   xmlns:rdf="http://www.w3.org/1999/02/22-rdf-syntax-ns#"
   xmlns:svg="http://www.w3.org/2000/svg"
   xmlns="http://www.w3.org/2000/svg"
   xmlns:sodipodi="http://sodipodi.sourceforge.net/DTD/sodipodi-0.dtd"
   xmlns:inkscape="http://www.inkscape.org/namespaces/inkscape"
   contentScriptType="text/ecmascript"
   contentStyleType="text/css"
   height="100%"
   id="Layer_1"
   preserveAspectRatio="xMidYMid meet"
   version="1.1"
   viewBox="0 0 64 64"
   width="100%"
   xml:space="preserve"
   zoomAndPan="magnify"
   sodipodi:docname="to_port.svg"
   inkscape:version="0.92.4 (unknown)"><metadata
     id="metadata9"><rdf:RDF><cc:Work
         rdf:about=""><dc:format>image/svg+xml</dc:format><dc:type
           rdf:resource="http://purl.org/dc/dcmitype/StillImage" /><dc:title></dc:title></cc:Work></rdf:RDF></metadata><defs
     id="defs7" /><sodipodi:namedview
     pagecolor="#ffffff"
     bordercolor="#666666"
     borderopacity="1"
     objecttolerance="10"
     gridtolerance="10"
     guidetolerance="10"
     inkscape:pageopacity="0"
     inkscape:pageshadow="2"
     inkscape:window-width="1920"
     inkscape:window-height="1010"
     id="namedview5"
     showgrid="false"
     inkscape:zoom="10.429825"
     inkscape:cx="52.680681"
     inkscape:cy="27.863698"
     inkscape:window-x="0"
     inkscape:window-y="0"
     inkscape:window-maximized="1"
     inkscape:current-layer="Layer_1" /><path
     d="m 48.25,33 c 0,0.67707 -0.247383,1.263008 -0.742188,1.757812 l -21.25,21.25 C 25.763008,56.502617 25.17707,56.75 24.5,56.75 23.82293,56.75 23.236992,56.502617 22.742187,56.007812 22.247383,55.513008 22,54.92707 22,54.25 V 43 H 4.5 C 3.8229297,43 3.2369922,42.752617 2.7421875,42.257812 2.2473828,41.763008 2,41.17707 2,40.5 v -15 C 2,24.82293 2.2473828,24.236992 2.7421875,23.742187 3.2369922,23.247383 3.8229297,23 4.5,23 H 22 V 11.75 C 22,11.07293 22.247383,10.486992 22.742187,9.992188 23.236992,9.497383 23.82293,9.25 24.5,9.25 c 0.67707,0 1.263008,0.247383 1.757812,0.742188 l 21.25,21.249999 C 48.002617,31.736992 48.25,32.32293 48.25,33 Z M 62,19.25 v 27.5 c 0,3.098945 -1.100273,5.748711 -3.300781,7.949219 C 56.498711,56.899727 53.848945,58 50.75,58 H 38.25 C 37.911445,58 37.618477,57.876289 37.371094,57.628906 37.123711,57.381523 37,57.088555 37,56.75 37,56.64582 36.98699,56.38543 36.96094,55.96875 36.93489,55.55207 36.9284,55.207031 36.94141,54.933594 36.95442,54.660156 36.99348,54.35418 37.058598,54.015625 37.123718,53.67707 37.25391,53.423164 37.449223,53.253906 37.644535,53.084648 37.911449,53 38.250004,53 h 12.5 c 1.71875,0 3.190117,-0.611992 4.414062,-1.835938 C 56.388008,49.940117 57,48.46875 57,46.75 V 19.25 C 57,17.53125 56.388008,16.059883 55.164062,14.835937 53.940117,13.611992 52.46875,13 50.75,13 H 39.5 39.070312 38.5625 c 0,0 -0.149727,-0.01301 -0.449219,-0.03906 -0.299492,-0.02605 -0.449219,-0.06512 -0.449219,-0.117187 0,-0.05207 -0.104179,-0.123711 -0.3125,-0.214844 -0.20832,-0.09113 -0.299492,-0.20832 -0.273437,-0.351562 0.02605,-0.143242 0,-0.319024 -0.07813,-0.527344 0,-0.10418 -0.01301,-0.36457 -0.03906,-0.78125 -0.02605,-0.41668 -0.03254,-0.761719 -0.01953,-1.035156 0.01301,-0.273438 0.05207,-0.579414 0.117188,-0.917969 0.06512,-0.338555 0.195312,-0.592461 0.390625,-0.761719 C 37.64453,8.084648 37.911444,8 38.249999,8 h 12.5 c 3.098945,0 5.748711,1.100273 7.949219,3.300781 C 60.899727,13.501289 62,16.151055 62,19.25 Z"
     id="path2"
     inkscape:connector-curvature="0"
     style="stroke-width:0.0390625" /></svg>