<?xml version="1.0" encoding="UTF-8" standalone="no"?>
<svg
   xmlns:dc="http://purl.org/dc/elements/1.1/"
   xmlns:cc="http://creativecommons.org/ns#"
   xmlns:rdf="http://www.w3.org/1999/02/22-rdf-syntax-ns#"
   xmlns:svg="http://www.w3.org/2000/svg"
   xmlns="http://www.w3.org/2000/svg"
   xmlns:sodipodi="http://sodipodi.sourceforge.net/DTD/sodipodi-0.dtd"
   xmlns:inkscape="http://www.inkscape.org/namespaces/inkscape"
   contentScriptType="text/ecmascript"
   contentStyleType="text/css"
   enable-background="new 0 0 64 64"
   height="64"
   id="Layer_1"
   preserveAspectRatio="xMidYMid meet"
   version="1.1"
   width="64"
   xml:space="preserve"
   zoomAndPan="magnify"
   sodipodi:docname="log.svg"
   inkscape:version="0.92.4 (unknown)"><metadata
     id="metadata9"><rdf:RDF><cc:Work
         rdf:about=""><dc:format>image/svg+xml</dc:format><dc:type
           rdf:resource="http://purl.org/dc/dcmitype/StillImage" /></cc:Work></rdf:RDF></metadata><defs
     id="defs7" /><sodipodi:namedview
     pagecolor="#ffffff"
     bordercolor="#666666"
     borderopacity="1"
     objecttolerance="10"
     gridtolerance="10"
     guidetolerance="10"
     inkscape:pageopacity="0"
     inkscape:pageshadow="2"
     inkscape:window-width="1920"
     inkscape:window-height="1010"
     id="namedview5"
     showgrid="false"
     inkscape:zoom="7.375"
     inkscape:cx="16.761399"
     inkscape:cy="45.611475"
     inkscape:window-x="0"
     inkscape:window-y="0"
     inkscape:window-maximized="1"
     inkscape:current-layer="Layer_1" /><path
     d="m 60,46 v 4 c 0,0.541656 -0.197906,1.010406 -0.59375,1.40625 C 59.010406,51.802094 58.541656,52 58,52 H 6 C 5.4583437,52 4.9895937,51.802094 4.59375,51.40625 4.1979062,51.010406 4,50.541656 4,50 V 46 C 4,45.458344 4.1979062,44.989594 4.59375,44.59375 4.9895937,44.197906 5.4583437,44 6,44 h 52 c 0.541656,0 1.010406,0.197906 1.40625,0.59375 C 59.802094,44.989594 60,45.458344 60,46 Z M 48,34 v 4 c 0,0.541656 -0.197906,1.010406 -0.59375,1.40625 C 47.010406,39.802094 46.541656,40 46,40 H 6 C 5.4583437,40 4.9895937,39.802094 4.59375,39.40625 4.1979062,39.010406 4,38.541656 4,38 V 34 C 4,33.458344 4.1979062,32.989594 4.59375,32.59375 4.9895937,32.197906 5.4583437,32 6,32 h 40 c 0.541656,0 1.010406,0.197906 1.40625,0.59375 C 47.802094,32.989594 48,33.458344 48,34 Z m 8,-12 v 4 c 0,0.541656 -0.197906,1.010406 -0.59375,1.40625 C 55.010406,27.802094 54.541656,28 54,28 H 6 C 5.4583437,28 4.9895937,27.802094 4.59375,27.40625 4.1979062,27.010406 4,26.541656 4,26 V 22 C 4,21.458344 4.1979062,20.989594 4.59375,20.59375 4.9895937,20.197906 5.4583437,20 6,20 h 48 c 0.541656,0 1.010406,0.197906 1.40625,0.59375 C 55.802094,20.989594 56,21.458344 56,22 Z M 44,10 v 4 c 0,0.541656 -0.197906,1.010406 -0.59375,1.40625 C 43.010406,15.802094 42.541656,16 42,16 H 6 C 5.4583437,16 4.9895937,15.802094 4.59375,15.40625 4.1979062,15.010406 4,14.541656 4,14 V 10 C 4,9.4583437 4.1979062,8.9895937 4.59375,8.59375 4.9895937,8.1979063 5.4583437,8 6,8 h 36 c 0.541656,0 1.010406,0.1979063 1.40625,0.59375 C 43.802094,8.9895937 44,9.4583437 44,10 Z"
     id="path2"
     inkscape:connector-curvature="0"
     style="stroke-width:0.03125" /></svg>