<?xml version="1.0" encoding="UTF-8" standalone="no"?>
<svg
   xmlns:dc="http://purl.org/dc/elements/1.1/"
   xmlns:cc="http://creativecommons.org/ns#"
   xmlns:rdf="http://www.w3.org/1999/02/22-rdf-syntax-ns#"
   xmlns:svg="http://www.w3.org/2000/svg"
   xmlns="http://www.w3.org/2000/svg"
   xmlns:sodipodi="http://sodipodi.sourceforge.net/DTD/sodipodi-0.dtd"
   xmlns:inkscape="http://www.inkscape.org/namespaces/inkscape"
   height="64"
   width="64"
   version="1.1"
   id="svg4"
   sodipodi:docname="persons.svg"
   inkscape:version="0.92.4 (unknown)">
  <metadata
     id="metadata10">
    <rdf:RDF>
      <cc:Work
         rdf:about="">
        <dc:format>image/svg+xml</dc:format>
        <dc:type
           rdf:resource="http://purl.org/dc/dcmitype/StillImage" />
      </cc:Work>
    </rdf:RDF>
  </metadata>
  <defs
     id="defs8" />
  <sodipodi:namedview
     pagecolor="#ffffff"
     bordercolor="#666666"
     borderopacity="1"
     objecttolerance="10"
     gridtolerance="10"
     guidetolerance="10"
     inkscape:pageopacity="0"
     inkscape:pageshadow="2"
     inkscape:window-width="1920"
     inkscape:window-height="1010"
     id="namedview6"
     showgrid="false"
     inkscape:zoom="8.4285714"
     inkscape:cx="38.031407"
     inkscape:cy="41.225766"
     inkscape:window-x="0"
     inkscape:window-y="0"
     inkscape:window-maximized="1"
     inkscape:current-layer="svg4" />
  <path
     d="M 20.53125,32 Q 15.46875,32.167411 12.25,36.285714 H 8.0625 Q 5.5,36.285714 3.75,34.929687 2,33.573661 2,30.962054 2,19.142857 5.875,19.142857 q 0.1875,0 1.359375,0.703125 1.171875,0.703125 3.046875,1.422991 1.875,0.719866 3.71875,0.719866 2.09375,0 4.15625,-0.770089 Q 18,22.457589 18,23.428571 18,28.082589 20.53125,32 Z M 54,53.328125 q 0,4.017857 -2.28125,6.344866 Q 49.4375,62 45.65625,62 H 18.34375 Q 14.5625,62 12.28125,59.672991 10,57.345982 10,53.328125 q 0,-1.774554 0.109375,-3.465402 0.109375,-1.690848 0.4375,-3.649553 0.328125,-1.958706 0.828125,-3.632813 0.5,-1.674107 1.34375,-3.264509 0.84375,-1.590402 1.9375,-2.712053 1.09375,-1.121652 2.671875,-1.791295 1.578125,-0.669643 3.484375,-0.669643 0.3125,0 1.34375,0.719866 1.03125,0.719866 2.28125,1.607143 1.25,0.887277 3.34375,1.607143 2.09375,0.719866 4.21875,0.719866 2.125,0 4.21875,-0.719866 2.09375,-0.719866 3.34375,-1.607143 1.25,-0.887277 2.28125,-1.607143 1.03125,-0.719866 1.34375,-0.719866 1.90625,0 3.484375,0.669643 1.578125,0.669643 2.671875,1.791295 1.09375,1.121651 1.9375,2.712053 0.84375,1.590402 1.34375,3.264509 0.5,1.674107 0.828125,3.632813 0.328125,1.958705 0.4375,3.649553 Q 54,51.553571 54,53.328125 Z M 22,10.571429 q 0,3.549107 -2.34375,6.060267 Q 17.3125,19.142857 14,19.142857 q -3.3125,0 -5.65625,-2.511161 Q 6,14.120536 6,10.571429 6,7.0223214 8.34375,4.5111607 10.6875,2 14,2 17.3125,2 19.65625,4.5111607 22,7.0223214 22,10.571429 Z m 22,12.857142 q 0,5.323661 -3.515625,9.090402 Q 36.96875,36.285714 32,36.285714 q -4.96875,0 -8.484375,-3.766741 Q 20,28.752232 20,23.428571 20,18.104911 23.515625,14.33817 27.03125,10.571429 32,10.571429 q 4.96875,0 8.484375,3.766741 Q 44,18.104911 44,23.428571 Z m 18,7.533483 q 0,2.611607 -1.75,3.967633 -1.75,1.356027 -4.3125,1.356027 H 51.75 Q 48.53125,32.167411 43.46875,32 46,28.082589 46,23.428571 46,22.457589 45.84375,21.21875 47.90625,21.988839 50,21.988839 q 1.84375,0 3.71875,-0.719866 1.875,-0.719866 3.046875,-1.422991 1.171875,-0.703125 1.359375,-0.703125 3.875,0 3.875,11.819197 z M 58,10.571429 q 0,3.549107 -2.34375,6.060267 Q 53.3125,19.142857 50,19.142857 q -3.3125,0 -5.65625,-2.511161 Q 42,14.120536 42,10.571429 42,7.0223214 44.34375,4.5111607 46.6875,2 50,2 53.3125,2 55.65625,4.5111607 58,7.0223214 58,10.571429 Z"
     id="path2"
     inkscape:connector-curvature="0"
     style="stroke-width:0.03234682" />
</svg>
