<?xml version="1.0" encoding="UTF-8" standalone="no"?>
<svg
   xmlns:dc="http://purl.org/dc/elements/1.1/"
   xmlns:cc="http://creativecommons.org/ns#"
   xmlns:rdf="http://www.w3.org/1999/02/22-rdf-syntax-ns#"
   xmlns:svg="http://www.w3.org/2000/svg"
   xmlns="http://www.w3.org/2000/svg"
   xmlns:sodipodi="http://sodipodi.sourceforge.net/DTD/sodipodi-0.dtd"
   xmlns:inkscape="http://www.inkscape.org/namespaces/inkscape"
   inkscape:version="1.0 (6e3e5246a0, 2020-05-07)"
   sodipodi:docname="person.svg"
   zoomAndPan="magnify"
   xml:space="preserve"
   width="64"
   viewBox="0 0 64 64"
   version="1.1"
   preserveAspectRatio="xMidYMid meet"
   id="Layer_1"
   height="64"
   contentStyleType="text/css"
   contentScriptType="text/ecmascript"><metadata
     id="metadata9"><rdf:RDF><cc:Work
         rdf:about=""><dc:format>image/svg+xml</dc:format><dc:type
           rdf:resource="http://purl.org/dc/dcmitype/StillImage" /></cc:Work></rdf:RDF></metadata><defs
     id="defs7" /><sodipodi:namedview
     inkscape:document-rotation="0"
     inkscape:current-layer="Layer_1"
     inkscape:window-maximized="1"
     inkscape:window-y="0"
     inkscape:window-x="0"
     inkscape:cy="26.751662"
     inkscape:cx="13.550434"
     inkscape:zoom="7.375"
     showgrid="false"
     id="namedview5"
     inkscape:window-height="1137"
     inkscape:window-width="1920"
     inkscape:pageshadow="2"
     inkscape:pageopacity="0"
     guidetolerance="10"
     gridtolerance="10"
     objecttolerance="10"
     borderopacity="1"
     bordercolor="#666666"
     pagecolor="#ffffff" /><path
     style="stroke-width:0.03724463;fill:#000000"
     inkscape:connector-curvature="0"
     id="path2"
     d="m 58,51.882812 c 0,3.125001 -0.864097,5.592461 -2.59233,7.402345 C 53.679438,61.095039 51.383062,62 48.518465,62 H 17.481535 C 14.616938,62 12.320561,61.095039 10.59233,59.285157 8.8640981,57.475273 8,55.007813 8,51.882812 8,50.502617 8.041442,49.154961 8.1242897,47.839843 8.2071379,46.524727 8.3728693,45.105469 8.6214488,43.582032 8.8700285,42.058594 9.1837004,40.64582 9.5625,39.34375 c 0.3787996,-1.302071 0.887784,-2.571601 1.526989,-3.808594 0.639204,-1.236992 1.373118,-2.291679 2.201704,-3.164063 0.828586,-0.872382 1.840661,-1.569023 3.036222,-2.089843 C 17.522976,29.76043 18.842791,29.5 20.286932,29.5 c 0.213068,0 0.710228,0.279961 1.491478,0.839844 0.78125,0.559883 1.663102,1.184883 2.645596,1.875 0.982492,0.690117 2.260902,1.315117 3.835227,1.875 1.574326,0.559883 3.15458,0.839843 4.740767,0.839843 1.586187,0 3.166441,-0.27996 4.740767,-0.839843 1.574325,-0.559883 2.852735,-1.184883 3.835227,-1.875 0.982493,-0.690117 1.864346,-1.315117 2.645596,-1.875 C 45.00284,29.779961 45.5,29.5 45.713068,29.5 c 1.444141,0 2.763956,0.26043 3.959518,0.78125 1.19556,0.52082 2.207634,1.217461 3.036221,2.089843 0.828587,0.872384 1.5625,1.927071 2.201706,3.164063 0.639202,1.236993 1.148187,2.506523 1.526987,3.808594 0.3788,1.30207 0.692471,2.714844 0.941051,4.238282 0.24858,1.523437 0.414312,2.942695 0.49716,4.257811 C 57.958559,49.154961 58,50.502617 58,51.882812 Z M 46.636363,17 c 0,4.140625 -1.331675,7.675781 -3.995027,10.605469 C 39.977983,30.535156 36.764205,32 33,32 29.235795,32 26.022017,30.535156 23.358664,27.605469 20.695312,24.675781 19.363638,21.140625 19.363638,17 c 0,-4.140625 1.331674,-7.6757812 3.995026,-10.6054688 C 26.022017,3.4648438 29.235795,2 33,2 36.764205,2 39.977983,3.4648438 42.641336,6.3945312 45.304688,9.3242188 46.636363,12.859375 46.636363,17 Z" /></svg>
