<?xml version="1.0" encoding="UTF-8" standalone="no"?>
<svg
   xmlns:dc="http://purl.org/dc/elements/1.1/"
   xmlns:cc="http://creativecommons.org/ns#"
   xmlns:rdf="http://www.w3.org/1999/02/22-rdf-syntax-ns#"
   xmlns:svg="http://www.w3.org/2000/svg"
   xmlns="http://www.w3.org/2000/svg"
   xmlns:sodipodi="http://sodipodi.sourceforge.net/DTD/sodipodi-0.dtd"
   xmlns:inkscape="http://www.inkscape.org/namespaces/inkscape"
   contentScriptType="text/ecmascript"
   contentStyleType="text/css"
   height="64"
   id="Layer_1"
   preserveAspectRatio="xMidYMid meet"
   version="1.1"
   viewBox="0 0 64 64"
   width="64"
   xml:space="preserve"
   zoomAndPan="magnify"
   sodipodi:docname="212941 - f007.svg"
   inkscape:version="0.92.4 (unknown)"><metadata
     id="metadata9"><rdf:RDF><cc:Work
         rdf:about=""><dc:format>image/svg+xml</dc:format><dc:type
           rdf:resource="http://purl.org/dc/dcmitype/StillImage" /></cc:Work></rdf:RDF></metadata><defs
     id="defs7" /><sodipodi:namedview
     pagecolor="#ffffff"
     bordercolor="#666666"
     borderopacity="1"
     objecttolerance="10"
     gridtolerance="10"
     guidetolerance="10"
     inkscape:pageopacity="0"
     inkscape:pageshadow="2"
     inkscape:window-width="1920"
     inkscape:window-height="1010"
     id="namedview5"
     showgrid="false"
     inkscape:zoom="7.375"
     inkscape:cx="36.669078"
     inkscape:cy="26.751662"
     inkscape:window-x="0"
     inkscape:window-y="0"
     inkscape:window-maximized="1"
     inkscape:current-layer="Layer_1" /><path
     d="m 60,53.208333 c 0,3.333334 -0.967789,5.965292 -2.90341,7.895834 C 55.160971,63.034708 52.589029,64 49.380681,64 H 14.619319 C 11.410971,64 8.8390285,63.034708 6.903409,61.104167 4.9677899,59.173625 4,56.541667 4,53.208333 c 0,-1.472208 0.046415,-2.909708 0.1392045,-4.3125 0.09279,-1.402791 0.2784091,-2.916666 0.5568182,-4.541666 0.2784092,-1.625 0.6297217,-3.131959 1.0539773,-4.520834 0.4242556,-1.388875 0.9943181,-2.743041 1.7102274,-4.0625 0.715909,-1.319458 1.5378919,-2.444458 2.465909,-3.375 0.9280166,-0.930541 2.0615396,-1.673625 3.4005686,-2.229166 1.339028,-0.555542 2.817221,-0.833334 4.434659,-0.833334 0.238636,0 0.795455,0.298625 1.670455,0.895834 0.875,0.597208 1.862675,1.263875 2.963068,2 1.100391,0.736125 2.53221,1.402791 4.295454,2 C 28.453586,34.826375 30.223471,35.125 32,35.125 c 1.776529,0 3.546414,-0.298625 5.309659,-0.895833 1.763244,-0.597209 3.195063,-1.263875 4.295454,-2 1.100393,-0.736125 2.088068,-1.402792 2.963068,-2 0.875,-0.597209 1.431819,-0.895834 1.670455,-0.895834 1.617438,0 3.095631,0.277792 4.43466,0.833334 1.339027,0.555541 2.47255,1.298625 3.400568,2.229166 0.928017,0.930542 1.75,2.055542 2.46591,3.375 0.715907,1.319459 1.28597,2.673625 1.710226,4.0625 0.424256,1.388875 0.775568,2.895834 1.053977,4.520834 0.27841,1.625 0.464029,3.138875 0.556819,4.541666 C 59.953586,50.298625 60,51.736125 60,53.208333 Z M 47.272726,16 c 0,4.416667 -1.491476,8.1875 -4.47443,11.3125 C 39.815341,30.4375 36.21591,32 32,32 27.78409,32 24.184659,30.4375 21.201704,27.3125 18.21875,24.1875 16.727274,20.416667 16.727274,16 c 0,-4.416667 1.491476,-8.1875 4.47443,-11.3125 C 24.184659,1.5625 27.78409,0 32,0 c 4.21591,0 7.815341,1.5625 10.798296,4.6875 2.982954,3.125 4.47443,6.895833 4.47443,11.3125 z"
     id="path2"
     inkscape:connector-curvature="0"
     style="stroke-width:0.04070868" /></svg>