<?xml version="1.0" encoding="UTF-8" standalone="no"?>
<svg
   xmlns:dc="http://purl.org/dc/elements/1.1/"
   xmlns:cc="http://creativecommons.org/ns#"
   xmlns:rdf="http://www.w3.org/1999/02/22-rdf-syntax-ns#"
   xmlns:svg="http://www.w3.org/2000/svg"
   xmlns="http://www.w3.org/2000/svg"
   xmlns:sodipodi="http://sodipodi.sourceforge.net/DTD/sodipodi-0.dtd"
   xmlns:inkscape="http://www.inkscape.org/namespaces/inkscape"
   inkscape:version="1.0 (6e3e5246a0, 2020-05-07)"
   sodipodi:docname="person_id.svg"
   id="svg4"
   version="1.1"
   width="64"
   height="64">
  <metadata
     id="metadata10">
    <rdf:RDF>
      <cc:Work
         rdf:about="">
        <dc:format>image/svg+xml</dc:format>
        <dc:type
           rdf:resource="http://purl.org/dc/dcmitype/StillImage" />
      </cc:Work>
    </rdf:RDF>
  </metadata>
  <defs
     id="defs8" />
  <sodipodi:namedview
     inkscape:document-rotation="0"
     inkscape:current-layer="svg4"
     inkscape:window-maximized="1"
     inkscape:window-y="0"
     inkscape:window-x="0"
     inkscape:cy="15.142484"
     inkscape:cx="20.14649"
     inkscape:zoom="5.9599"
     showgrid="false"
     id="namedview6"
     inkscape:window-height="1137"
     inkscape:window-width="1920"
     inkscape:pageshadow="2"
     inkscape:pageopacity="0"
     guidetolerance="10"
     gridtolerance="10"
     objecttolerance="10"
     borderopacity="1"
     bordercolor="#666666"
     pagecolor="#ffffff" />
  <path
     style="stroke-width:0.03578348;fill:#000000"
     inkscape:connector-curvature="0"
     id="path2"
     d="m 28.454546,57.384615 3.409091,-16.153846 -3.409091,-4.615384 -4.545455,-2.307693 z m 9.090908,0 4.545455,-23.076923 -4.545455,2.307693 -3.409091,4.615384 z M 43.227273,20.966346 Q 43.156248,20.822115 43.085228,20.75 q -0.355115,-0.288462 -3.409091,-0.288462 -2.485796,0 -5.930399,0.685097 Q 33.497159,21.21875 33,21.21875 q -0.497159,0 -0.745738,-0.07212 -3.444603,-0.685097 -5.930399,-0.685097 -3.053976,0 -3.409091,0.288462 -0.07102,0.07212 -0.142045,0.216346 0.07102,0.649039 0.142045,0.973558 0.07103,0.108173 0.266336,0.234375 0.195313,0.126202 0.266335,0.378606 0.07102,0.14423 0.266335,0.739182 0.195313,0.594952 0.24858,0.739183 0.05327,0.144231 0.266335,0.612981 0.213069,0.46875 0.301847,0.612981 0.08878,0.14423 0.319602,0.504807 0.230824,0.360577 0.426136,0.486779 0.195313,0.126202 0.497159,0.342548 0.301847,0.216346 0.62145,0.288462 0.319601,0.07212 0.727982,0.14423 0.408381,0.07212 0.870028,0.07212 1.27841,0 2.095171,-0.450721 0.816761,-0.450721 1.154119,-1.081731 0.337359,-0.63101 0.514915,-1.24399 0.177557,-0.612981 0.408381,-1.063702 0.230824,-0.450722 0.621449,-0.450722 h 0.426136 q 0.390625,0 0.621449,0.450722 0.230824,0.450721 0.408381,1.063702 0.177556,0.61298 0.514915,1.24399 0.337358,0.63101 1.154119,1.081731 0.816761,0.450721 2.095171,0.450721 0.461647,0 0.870028,-0.07212 0.408381,-0.07212 0.727982,-0.14423 0.319603,-0.07212 0.621449,-0.288462 0.301847,-0.216346 0.49716,-0.342548 0.195312,-0.126202 0.426136,-0.486779 0.230824,-0.360577 0.319602,-0.504807 0.08878,-0.144231 0.301847,-0.612981 0.213068,-0.46875 0.266335,-0.612981 0.05327,-0.144231 0.24858,-0.739183 0.195312,-0.594952 0.266335,-0.739182 0.07102,-0.252404 0.266335,-0.378606 0.195312,-0.126202 0.266336,-0.234375 0.07102,-0.324519 0.142044,-0.973558 z M 58,52.661058 q 0,4.36298 -2.592329,6.850961 Q 52.815341,62 48.518466,62 H 17.481534 Q 13.184659,62 10.59233,59.512019 8,57.024038 8,52.661058 q 0,-2.19952 0.1598012,-4.254808 0.159801,-2.055288 0.6747159,-4.52524 0.5149147,-2.469952 1.3316759,-4.453125 0.816762,-1.983173 2.254972,-3.731972 1.43821,-1.748798 3.320313,-2.686298 l -3.196023,-7.932692 h 7.599432 q -0.78125,-2.307692 -0.78125,-4.615385 0,-0.432692 0.07102,-1.153846 -6.889204,-1.442307 -6.889204,-3.461538 0,-2.055289 7.457385,-3.569712 0.603694,-2.235577 1.828835,-4.8317305 Q 23.056821,4.8485577 24.33523,3.3341346 25.471593,2 27.034093,2 q 1.065341,0 2.982955,1.1177885 1.917614,1.1177884 2.982954,1.1177884 1.065341,0 2.982955,-1.1177884 Q 37.900571,2 38.965912,2 q 1.5625,0 2.698863,1.3341346 1.278409,1.5144231 2.503552,4.1105769 1.225141,2.5961535 1.828835,4.8317305 7.457386,1.514423 7.457386,3.569712 0,2.019231 -6.889205,3.461538 0.24858,2.920673 -0.710227,5.769231 h 7.599432 l -2.911932,8.112981 q 2.237216,1.189904 3.817472,3.479567 1.580255,2.289664 2.325994,5.174279 0.745739,2.884615 1.02983,5.46274 Q 58,49.884615 58,52.661058 Z" />
</svg>
