<?xml version="1.0" encoding="UTF-8" standalone="no"?>
<svg
   xmlns:dc="http://purl.org/dc/elements/1.1/"
   xmlns:cc="http://creativecommons.org/ns#"
   xmlns:rdf="http://www.w3.org/1999/02/22-rdf-syntax-ns#"
   xmlns:svg="http://www.w3.org/2000/svg"
   xmlns="http://www.w3.org/2000/svg"
   xmlns:sodipodi="http://sodipodi.sourceforge.net/DTD/sodipodi-0.dtd"
   xmlns:inkscape="http://www.inkscape.org/namespaces/inkscape"
   contentScriptType="text/ecmascript"
   contentStyleType="text/css"
   height="64"
   id="Layer_1"
   preserveAspectRatio="xMidYMid meet"
   version="1.1"
   width="64"
   xml:space="preserve"
   zoomAndPan="magnify"
   sodipodi:docname="refresh.svg"
   inkscape:version="0.92.4 (unknown)"><metadata
     id="metadata9"><rdf:RDF><cc:Work
         rdf:about=""><dc:format>image/svg+xml</dc:format><dc:type
           rdf:resource="http://purl.org/dc/dcmitype/StillImage" /></cc:Work></rdf:RDF></metadata><defs
     id="defs7" /><sodipodi:namedview
     pagecolor="#ffffff"
     bordercolor="#666666"
     borderopacity="1"
     objecttolerance="10"
     gridtolerance="10"
     guidetolerance="10"
     inkscape:pageopacity="0"
     inkscape:pageshadow="2"
     inkscape:window-width="1920"
     inkscape:window-height="1010"
     id="namedview5"
     showgrid="false"
     inkscape:zoom="7.375"
     inkscape:cx="61.981505"
     inkscape:cy="26.351613"
     inkscape:window-x="0"
     inkscape:window-y="0"
     inkscape:window-maximized="1"
     inkscape:current-layer="Layer_1" /><path
     d="m 42,49.000001 c 0,0.270843 -0.09897,0.505218 -0.296875,0.703124 C 41.505219,49.901031 41.270844,50 41,50 H 11 C 10.833344,50 10.692719,49.97916 10.578125,49.9375 10.463531,49.89583 10.369781,49.822905 10.296875,49.71875 10.223965,49.614597 10.166656,49.531253 10.125,49.468754 10.08334,49.406258 10.05209,49.286471 10.03125,49.109379 10.010406,48.932282 10,48.8125 10,48.749999 V 48.34375 48 43 30 H 4 C 3.4583438,30 2.9895938,29.802094 2.59375,29.40625 2.1979063,29.010407 2,28.541656 2,28 2,27.5 2.15625,27.072905 2.46875,26.71875 l 10,-12.000001 C 12.864594,14.260406 13.375,14.03125 14,14.03125 c 0.625,0 1.135406,0.229156 1.53125,0.687499 l 10,12.000001 C 25.84375,27.072905 26,27.5 26,28 26,28.541656 25.802094,29.010407 25.40625,29.40625 25.010406,29.802094 24.541656,30 24,30 h -6 v 11.999999 h 18 c 0.333344,0 0.59375,0.114594 0.78125,0.343751 l 5,6 C 41.927094,48.572906 42,48.791656 42,49.000001 Z M 62,36 c 0,0.5 -0.15625,0.927095 -0.46875,1.28125 l -10,12.000001 C 51.114594,49.760407 50.604156,50 50,50 49.395844,50 48.885406,49.760407 48.46875,49.281251 l -10,-12.000001 C 38.15625,36.927095 38,36.5 38,36 38,35.458344 38.197906,34.989593 38.59375,34.59375 38.989594,34.197906 39.458344,34 40,34 h 6 V 22.000001 H 28 c -0.333344,0 -0.59375,-0.125001 -0.78125,-0.375001 l -5,-6 C 22.072906,15.4375 22,15.229157 22,14.999999 22,14.729156 22.09897,14.494781 22.296875,14.296875 22.494781,14.098969 22.729156,14 23,14 h 30 c 0.166656,0 0.307281,0.02084 0.421875,0.0625 0.114594,0.04166 0.208344,0.114595 0.28125,0.21875 0.07291,0.104157 0.130219,0.1875 0.171875,0.25 0.04166,0.0625 0.07291,0.182282 0.09375,0.359375 C 53.98959,15.067718 54,15.1875 54,15.250001 V 15.65625 16 21 34 h 6 c 0.541656,0 1.010406,0.197906 1.40625,0.59375 C 61.802094,34.989593 62,35.458344 62,36 Z"
     id="path2"
     inkscape:connector-curvature="0"
     style="stroke-width:0.03125" /></svg>