<?xml version="1.0" encoding="UTF-8" standalone="no"?>
<svg
   xmlns:dc="http://purl.org/dc/elements/1.1/"
   xmlns:cc="http://creativecommons.org/ns#"
   xmlns:rdf="http://www.w3.org/1999/02/22-rdf-syntax-ns#"
   xmlns:svg="http://www.w3.org/2000/svg"
   xmlns="http://www.w3.org/2000/svg"
   xmlns:sodipodi="http://sodipodi.sourceforge.net/DTD/sodipodi-0.dtd"
   xmlns:inkscape="http://www.inkscape.org/namespaces/inkscape"
   contentScriptType="text/ecmascript"
   contentStyleType="text/css"
   height="64"
   id="Layer_1"
   preserveAspectRatio="xMidYMid meet"
   version="1.1"
   width="64"
   xml:space="preserve"
   zoomAndPan="magnify"
   sodipodi:docname="setup.svg"
   inkscape:version="1.0 (6e3e5246a0, 2020-05-07)"><metadata
     id="metadata9"><rdf:RDF><cc:Work
         rdf:about=""><dc:format>image/svg+xml</dc:format><dc:type
           rdf:resource="http://purl.org/dc/dcmitype/StillImage" /></cc:Work></rdf:RDF></metadata><defs
     id="defs7" /><sodipodi:namedview
     pagecolor="#ffffff"
     bordercolor="#666666"
     borderopacity="1"
     objecttolerance="10"
     gridtolerance="10"
     guidetolerance="10"
     inkscape:pageopacity="0"
     inkscape:pageshadow="2"
     inkscape:window-width="1920"
     inkscape:window-height="1137"
     id="namedview5"
     showgrid="false"
     inkscape:zoom="5.2149125"
     inkscape:cx="-8.3899283"
     inkscape:cy="9.7708611"
     inkscape:window-x="0"
     inkscape:window-y="0"
     inkscape:window-maximized="1"
     inkscape:current-layer="Layer_1"
     inkscape:document-rotation="0" /><g
     id="g13"><circle
       r="32"
       style="fill:#000000"
       id="path11"
       cx="32"
       cy="32" /><path
       style="fill:#ffffff;stroke-width:0.0364583"
       inkscape:connector-curvature="0"
       id="path2"
       d="m 41.333334,32 c 0,-2.576402 -0.911459,-4.776042 -2.734376,-6.598959 C 36.776041,23.578124 34.576402,22.666666 32,22.666666 c -2.576402,0 -4.776042,0.911458 -6.598959,2.734375 -1.822917,1.822917 -2.734375,4.022557 -2.734375,6.598959 0,2.576402 0.911458,4.776041 2.734375,6.598958 1.822917,1.822917 4.022557,2.734376 6.598959,2.734376 2.576402,0 4.776041,-0.911459 6.598958,-2.734376 C 40.421875,36.776041 41.333334,34.576402 41.333334,32 Z M 60,28.026041 v 8.093751 c 0,0.291666 -0.09723,0.571193 -0.291666,0.838542 -0.194432,0.267348 -0.4375,0.425358 -0.729168,0.473958 l -6.744791,1.020832 c -0.461818,1.3125 -0.935777,2.418391 -1.421875,3.31771 0.850682,1.215264 2.151041,2.892348 3.901041,5.031249 0.243068,0.291667 0.364583,0.595474 0.364583,0.911458 0,0.315985 -0.109374,0.595474 -0.328124,0.838542 -0.65625,0.899319 -1.859376,2.211819 -3.609376,3.9375 -1.75,1.725683 -2.892349,2.588541 -3.427083,2.588541 -0.291666,0 -0.60765,-0.109374 -0.947917,-0.328124 l -5.031249,-3.9375 c -1.069432,0.559015 -2.17536,1.020834 -3.317709,1.385417 -0.3889,3.305568 -0.741306,5.565985 -1.057291,6.781249 C 37.189225,59.659734 36.751725,60 36.046875,60 H 27.953124 C 27.61286,60 27.315105,59.896714 27.059895,59.690105 26.804688,59.483496 26.664943,59.222234 26.640624,58.90625 L 25.619792,52.197917 C 24.428808,51.809015 23.335057,51.359375 22.338541,50.848958 L 17.197917,54.75 c -0.243068,0.21875 -0.546875,0.328124 -0.911458,0.328124 -0.340267,0 -0.64411,-0.133692 -0.911459,-0.401041 -3.0625,-2.770833 -5.067708,-4.8125 -6.015625,-6.125 -0.170151,-0.243068 -0.255208,-0.522557 -0.255208,-0.838542 0,-0.291666 0.09723,-0.571192 0.291666,-0.838541 0.364584,-0.510417 0.984375,-1.318589 1.859375,-2.424478 0.875,-1.105891 1.531251,-1.962662 1.968751,-2.570315 -0.656251,-1.215264 -1.154527,-2.418389 -1.494793,-3.609373 L 5.0572917,37.286458 C 4.7413072,37.23786 4.4860989,37.085937 4.2916666,36.830729 4.0972343,36.575522 4,36.289943 4,35.973958 V 27.880207 C 4,27.588541 4.0972343,27.309015 4.2916666,27.041666 4.4860989,26.774318 4.717026,26.616308 4.984375,26.567707 l 6.78125,-1.020832 c 0.340266,-1.118067 0.814224,-2.2361 1.421875,-3.354168 -0.972234,-1.385415 -2.272557,-3.0625 -3.901042,-5.031249 -0.243067,-0.291665 -0.364583,-0.583333 -0.364583,-0.874999 0,-0.243068 0.109375,-0.522557 0.328125,-0.838542 0.631932,-0.875 1.829005,-2.181413 3.591146,-3.919271 1.76214,-1.73786 2.910579,-2.606771 3.445313,-2.606771 0.315984,0 0.631932,0.121516 0.947916,0.364583 l 5.031249,3.901042 c 1.069433,-0.559015 2.175361,-1.020834 3.31771,-1.385417 0.3889,-3.3055673 0.741306,-5.5659841 1.05729,-6.7812496 C 26.810775,4.3402657 27.248275,4 27.953124,4 h 8.093751 c 0.340265,0 0.63802,0.1032865 0.89323,0.3098959 0.255207,0.2066093 0.394952,0.4678698 0.41927,0.7838541 l 1.020832,6.708333 c 1.190985,0.388902 2.284736,0.838542 3.281251,1.348959 L 46.838541,9.25 c 0.218751,-0.21875 0.510417,-0.328125 0.875,-0.328125 0.315985,0 0.619793,0.121516 0.911459,0.364583 3.135417,2.89235 5.140624,4.958335 6.015624,6.197918 0.170151,0.194432 0.25521,0.461816 0.25521,0.802083 0,0.291666 -0.09724,0.571192 -0.291668,0.838541 -0.364583,0.510417 -0.984374,1.318589 -1.859374,2.424478 -0.875,1.105891 -1.531251,1.962662 -1.968751,2.570314 0.631933,1.215265 1.130209,2.406249 1.494793,3.572915 l 6.671873,1.020834 c 0.315985,0.0486 0.571195,0.200522 0.765627,0.45573 C 59.902766,27.424478 60,27.710057 60,28.026041 Z" /></g></svg>
