<?xml version="1.0" encoding="UTF-8" standalone="no"?>
<svg
   xmlns:dc="http://purl.org/dc/elements/1.1/"
   xmlns:cc="http://creativecommons.org/ns#"
   xmlns:rdf="http://www.w3.org/1999/02/22-rdf-syntax-ns#"
   xmlns:svg="http://www.w3.org/2000/svg"
   xmlns="http://www.w3.org/2000/svg"
   xmlns:sodipodi="http://sodipodi.sourceforge.net/DTD/sodipodi-0.dtd"
   xmlns:inkscape="http://www.inkscape.org/namespaces/inkscape"
   contentScriptType="text/ecmascript"
   contentStyleType="text/css"
   height="64"
   id="Layer_1"
   preserveAspectRatio="xMidYMid meet"
   version="1.1"
   width="64"
   xml:space="preserve"
   zoomAndPan="magnify"
   sodipodi:docname="tag.svg"
   inkscape:version="0.92.4 (unknown)"><metadata
     id="metadata9"><rdf:RDF><cc:Work
         rdf:about=""><dc:format>image/svg+xml</dc:format><dc:type
           rdf:resource="http://purl.org/dc/dcmitype/StillImage" /></cc:Work></rdf:RDF></metadata><defs
     id="defs7" /><sodipodi:namedview
     pagecolor="#ffffff"
     bordercolor="#666666"
     borderopacity="1"
     objecttolerance="10"
     gridtolerance="10"
     guidetolerance="10"
     inkscape:pageopacity="0"
     inkscape:pageshadow="2"
     inkscape:window-width="1920"
     inkscape:window-height="1010"
     id="namedview5"
     showgrid="false"
     inkscape:zoom="7.375"
     inkscape:cx="13.791394"
     inkscape:cy="42.060352"
     inkscape:window-x="0"
     inkscape:window-y="0"
     inkscape:window-maximized="1"
     inkscape:current-layer="Layer_1" /><path
     d="m 20.754098,48.625788 -1.639344,1.893597 c -0.21859,0.252493 -0.469934,0.37872 -0.754098,0.37872 -0.284164,0 -0.535508,-0.126227 -0.754099,-0.37872 L 2.3278689,32.871056 C 2.1092787,32.618562 2,32.328235 2,32 2,31.671763 2.1092787,31.381438 2.3278689,31.128945 L 17.606557,13.480614 c 0.218591,-0.252492 0.469935,-0.37872 0.754099,-0.37872 0.284164,0 0.535508,0.126228 0.754098,0.37872 l 1.639344,1.893597 c 0.218591,0.252493 0.327869,0.542819 0.327869,0.871055 0,0.328237 -0.109278,0.618563 -0.327869,0.871055 L 7.8688525,32 20.754098,46.883678 c 0.218591,0.252492 0.327869,0.542817 0.327869,0.871055 0,0.328235 -0.109278,0.618563 -0.327869,0.871055 z M 40.131148,8.2164124 27.901639,57.109104 c -0.08744,0.328237 -0.256819,0.574405 -0.508196,0.738503 -0.251377,0.1641 -0.508197,0.195686 -0.770492,0.09468 L 24.590164,57.298464 C 24.306,57.197461 24.092885,57.001815 23.95082,56.71145 23.808754,56.421084 23.78141,56.111822 23.86885,55.783587 L 36.098361,6.8908944 c 0.08744,-0.328236 0.256819,-0.574404 0.508196,-0.738503 0.251377,-0.1640994 0.508197,-0.1956847 0.770492,-0.09468 l 2.032787,0.643823 c 0.284164,0.101005 0.497279,0.296651 0.639344,0.587016 0.142066,0.290364 0.16941,0.599626 0.08197,0.927862 z M 61.672131,32.871056 46.393443,50.519385 c -0.218591,0.252493 -0.469935,0.37872 -0.754099,0.37872 -0.284164,0 -0.535508,-0.126227 -0.754098,-0.37872 l -1.639344,-1.893597 c -0.218591,-0.252492 -0.327869,-0.54282 -0.327869,-0.871055 0,-0.328238 0.109278,-0.618563 0.327869,-0.871055 L 56.131148,32 43.245902,17.116321 c -0.218591,-0.252492 -0.327869,-0.542818 -0.327869,-0.871055 0,-0.328236 0.109278,-0.618562 0.327869,-0.871055 l 1.639344,-1.893597 c 0.21859,-0.252492 0.469934,-0.37872 0.754098,-0.37872 0.284164,0 0.535508,0.126228 0.754099,0.37872 L 61.672131,31.128945 C 61.890721,31.381438 62,31.671763 62,32 c 0,0.328235 -0.109279,0.618562 -0.327869,0.871056 z"
     id="path2"
     inkscape:connector-curvature="0"
     style="stroke-width:0.0352378" /></svg>